<svg width="41" height="41" viewBox="0 0 41 41" fill="none" xmlns="http://www.w3.org/2000/svg">
<g clip-path="url(#clip0_1_7)">
<path d="M41 0H0V41H41V0Z" fill="#E8E8E8"/>
<path d="M26.0364 6.863C25.8763 6.88483 25.7283 6.96731 25.6289 7.09587L23.1449 10.2009L22.7955 10.6278L23.1837 11.0353L23.4554 11.307C20.9034 13.728 18.092 14.315 13.073 14.315H12.5684L12.4714 14.8196C11.2537 20.9131 6.90182 33.3525 6.90182 33.3525L6.47488 34.5751L7.69748 34.1482C7.69748 34.1482 20.1369 29.7963 26.2304 28.5786L26.735 28.4816V27.977C26.735 22.9556 27.322 20.1466 29.743 17.5947L30.0147 17.8663L30.3834 18.2157L30.8103 17.944L34.5363 15.46C34.825 15.2659 34.905 14.8754 34.711 14.5867C34.5169 14.298 34.1264 14.218 33.8377 14.412L30.5386 16.6049L24.4645 10.5308L26.5992 7.87212C26.7617 7.67563 26.7859 7.3991 26.6622 7.17592C26.5361 6.95275 26.2887 6.82904 26.0364 6.863ZM24.3286 12.1803L28.8697 16.7214C26.2741 19.448 25.5585 22.6427 25.5124 27.4918C20.4061 28.5737 12.9226 31.0674 9.81276 32.1299L18.7784 23.1642C19.1059 23.3389 19.4722 23.4553 19.8652 23.4553C21.1436 23.4553 22.1939 22.405 22.1939 21.1266C22.1939 19.8482 21.1436 18.8172 19.8652 18.8172C18.5868 18.8172 17.5364 19.8482 17.5364 21.1266C17.5364 21.5511 17.665 21.9465 17.8664 22.291L8.92007 31.2372C9.98256 28.1274 12.4763 20.6439 13.5582 15.5376C18.4049 15.4915 21.6021 14.7759 24.3286 12.1803ZM19.8652 20.0592C20.4716 20.0592 20.9519 20.5201 20.9519 21.1266C20.9519 21.733 20.4716 22.2133 19.8652 22.2133C19.5984 22.2133 19.3534 22.1357 19.1666 21.9805C19.1423 21.9514 19.1181 21.9271 19.0889 21.9028C18.8925 21.7064 18.7784 21.4298 18.7784 21.1266C18.7784 20.5201 19.2588 20.0592 19.8652 20.0592Z" fill="#5B5B5B"/>
</g>
<defs>
<clipPath id="clip0_1_7">
<rect width="41" height="41" fill="white"/>
</clipPath>
</defs>
</svg>
