<svg width="36" height="36" viewBox="0 0 36 36" fill="none" xmlns="http://www.w3.org/2000/svg">
<rect width="36" height="36" fill="#F4F4F4"/>
<path d="M12.379 15.7066C12.166 16.3286 12.0586 16.9818 12.0598 17.6394C12.0598 18.3727 12.1914 19.076 12.4356 19.7254C13.5878 22.8006 17.0146 24.3583 20.0899 23.2057C20.4071 23.0866 20.713 22.9412 21.0049 22.7701H21.0057C22.1844 22.0797 23.0885 21.0053 23.5702 19.7269H18.2227V15.7711H27.8281C28.0762 17.0795 28.0613 18.4243 27.7843 19.7273C27.3038 21.9793 26.0598 23.9957 24.2637 25.4374C22.4903 26.8662 20.2801 27.6425 18.0031 27.6394C12.4813 27.6425 8.00313 23.1686 8 17.6472C7.99922 16.0438 8.38367 14.4638 9.12092 13.0397C10.84 9.72145 14.2657 7.63745 18.0031 7.63941C20.429 7.63941 22.6544 8.50364 24.386 9.94103L21.1467 12.5935C18.3575 10.8572 14.6896 11.7117 12.9533 14.4997C12.7169 14.8795 12.5243 15.285 12.379 15.7066Z" fill="#141414"/>
</svg>
