<svg width="41" height="41" viewBox="0 0 41 41" fill="none" xmlns="http://www.w3.org/2000/svg">
<g clip-path="url(#clip0_1_17)">
<path d="M41 0H0V41H41V0Z" fill="#E8E8E8"/>
<path d="M8.79605 8.324C8.51917 8.3762 8.31945 8.62131 8.32399 8.905V14.715C8.32399 15.035 8.58499 15.296 8.90499 15.296H32.145C32.465 15.296 32.726 15.035 32.726 14.715V8.905C32.726 8.58499 32.465 8.324 32.145 8.324H8.90499C8.88683 8.324 8.86868 8.324 8.85052 8.324C8.83236 8.324 8.81421 8.324 8.79605 8.324ZM9.48599 9.486H31.564V14.134H9.48599V9.486ZM8.79605 16.458C8.51917 16.5102 8.31945 16.7553 8.32399 17.039V32.145C8.32399 32.465 8.58499 32.726 8.90499 32.726H22.849C23.169 32.726 23.43 32.465 23.43 32.145V17.039C23.43 16.719 23.169 16.458 22.849 16.458H8.90499C8.88683 16.458 8.86868 16.458 8.85052 16.458C8.83236 16.458 8.81421 16.458 8.79605 16.458ZM25.0641 16.458C24.7872 16.5102 24.5874 16.7553 24.592 17.039V20.525C24.592 20.845 24.853 21.106 25.173 21.106H32.145C32.465 21.106 32.726 20.845 32.726 20.525V17.039C32.726 16.719 32.465 16.458 32.145 16.458H25.173C25.1548 16.458 25.1367 16.458 25.1185 16.458C25.1004 16.458 25.0822 16.458 25.0641 16.458ZM9.48599 17.62H22.268V31.564H9.48599V17.62ZM25.754 17.62H31.564V19.944H25.754V17.62ZM25.0641 22.268C24.7872 22.3202 24.5874 22.5653 24.592 22.849V26.335C24.592 26.655 24.853 26.916 25.173 26.916H32.145C32.465 26.916 32.726 26.655 32.726 26.335V22.849C32.726 22.529 32.465 22.268 32.145 22.268H25.173C25.1548 22.268 25.1367 22.268 25.1185 22.268C25.1004 22.268 25.0822 22.268 25.0641 22.268ZM25.754 23.43H31.564V25.754H25.754V23.43ZM25.0641 28.078C24.7872 28.1302 24.5874 28.3753 24.592 28.659V32.145C24.592 32.465 24.853 32.726 25.173 32.726H32.145C32.465 32.726 32.726 32.465 32.726 32.145V28.659C32.726 28.339 32.465 28.078 32.145 28.078H25.173C25.1548 28.078 25.1367 28.078 25.1185 28.078C25.1004 28.078 25.0822 28.078 25.0641 28.078ZM25.754 29.24H31.564V31.564H25.754V29.24Z" fill="#5B5B5B"/>
</g>
<defs>
<clipPath id="clip0_1_17">
<rect width="41" height="41" fill="white"/>
</clipPath>
</defs>
</svg>
